<?xml version="1.0" encoding="UTF-8" standalone="no"?>
<!DOCTYPE svg PUBLIC "-//W3C//DTD SVG 1.1//EN"
 "http://www.w3.org/Graphics/SVG/1.1/DTD/svg11.dtd">
<!-- Generated by graphviz version 2.43.0 (0)
 -->
<!-- Title: %3 Pages: 1 -->
<svg width="279pt" height="355pt"
 viewBox="0.00 0.00 278.68 355.00" xmlns="http://www.w3.org/2000/svg" xmlns:xlink="http://www.w3.org/1999/xlink">
<g id="graph0" class="graph" transform="scale(1 1) rotate(0) translate(4 351)">
<title>%3</title>
<polygon fill="#333333" stroke="transparent" points="-4,4 -4,-351 274.68,-351 274.68,4 -4,4"/>
<text text-anchor="middle" x="135.34" y="-9.2" font-family="Times,serif" font-size="16.00" fill="white">Network Map</text>
<!-- R1 -->
<g id="node1" class="node">
<title>R1</title>
<polygon fill="#006699" stroke="#006699" points="150.18,-99 73.18,-99 73.18,-26 150.18,-26 150.18,-99"/>
<text text-anchor="middle" x="111.68" y="-58.8" font-family="Helvetica,sans-Serif" font-size="14.00" fill="white">R1</text>
</g>
<!-- R2 -->
<g id="node2" class="node">
<title>R2</title>
<polygon fill="#006699" stroke="#006699" points="93.18,-223 16.18,-223 16.18,-150 93.18,-150 93.18,-223"/>
<text text-anchor="middle" x="54.68" y="-182.8" font-family="Helvetica,sans-Serif" font-size="14.00" fill="white">R2</text>
</g>
<!-- R1&#45;&#45;R2 -->
<g id="edge2" class="edge">
<title>R1&#45;&#45;R2</title>
<path fill="none" stroke="green" stroke-dasharray="5,2" d="M73.05,-92.35C66.02,-99.56 59.66,-107.88 55.68,-117 51.26,-127.14 49.92,-138.95 50,-149.88"/>
<text text-anchor="middle" x="105.68" y="-120.8" font-family="Courier,monospace" font-size="14.00" fill="white"> &#160;&#160;&#160;&#160;&#160;&#160;&#160;&#160;&#160;&#160;&#160;</text>
<text text-anchor="middle" x="25" y="-138.68" font-family="Courier,monospace" font-size="14.00" fill="white">Eth0/1</text>
<text text-anchor="middle" x="48.05" y="-81.15" font-family="Courier,monospace" font-size="14.00" fill="white">Eth0/1</text>
</g>
<!-- R3 -->
<g id="node3" class="node">
<title>R3</title>
<polygon fill="#006699" stroke="#006699" points="150.18,-347 73.18,-347 73.18,-274 150.18,-274 150.18,-347"/>
<text text-anchor="middle" x="111.68" y="-306.8" font-family="Helvetica,sans-Serif" font-size="14.00" fill="white">R3</text>
</g>
<!-- R1&#45;&#45;R3 -->
<g id="edge1" class="edge">
<title>R1&#45;&#45;R3</title>
<path fill="none" stroke="green" stroke-dasharray="5,2" d="M146.33,-99.14C150.14,-104.75 153.45,-110.77 155.68,-117 176.52,-175.16 176.52,-197.84 155.68,-256 153.45,-262.23 150.14,-268.25 146.33,-273.86"/>
<text text-anchor="middle" x="220.68" y="-182.8" font-family="Courier,monospace" font-size="14.00" fill="white"> &#160;&#160;&#160;&#160;&#160;&#160;&#160;&#160;&#160;&#160;&#160;</text>
<text text-anchor="middle" x="121.33" y="-262.66" font-family="Courier,monospace" font-size="14.00" fill="white">Eth0/3</text>
<text text-anchor="middle" x="121.33" y="-102.94" font-family="Courier,monospace" font-size="14.00" fill="white">Eth0/3</text>
</g>
<!-- R2&#45;&#45;R3 -->
<g id="edge3" class="edge">
<title>R2&#45;&#45;R3</title>
<path fill="none" stroke="green" stroke-dasharray="5,2" d="M50,-223.12C49.92,-234.05 51.26,-245.86 55.68,-256 59.66,-265.12 66.02,-273.44 73.05,-280.65"/>
<text text-anchor="middle" x="105.68" y="-244.8" font-family="Courier,monospace" font-size="14.00" fill="white"> &#160;&#160;&#160;&#160;&#160;&#160;&#160;&#160;&#160;&#160;&#160;</text>
<text text-anchor="middle" x="48.05" y="-269.45" font-family="Courier,monospace" font-size="14.00" fill="white">Eth0/2</text>
<text text-anchor="middle" x="25" y="-226.92" font-family="Courier,monospace" font-size="14.00" fill="white">Eth0/2</text>
</g>
</g>
</svg>
