<?xml version="1.0" encoding="UTF-8" standalone="no"?>
<!DOCTYPE svg PUBLIC "-//W3C//DTD SVG 1.1//EN"
 "http://www.w3.org/Graphics/SVG/1.1/DTD/svg11.dtd">
<!-- Generated by graphviz version 2.43.0 (0)
 -->
<!-- Title: %3 Pages: 1 -->
<svg width="241pt" height="355pt"
 viewBox="0.00 0.00 240.54 355.00" xmlns="http://www.w3.org/2000/svg" xmlns:xlink="http://www.w3.org/1999/xlink">
<g id="graph0" class="graph" transform="scale(1 1) rotate(0) translate(4 351)">
<title>%3</title>
<polygon fill="#333333" stroke="transparent" points="-4,4 -4,-351 236.54,-351 236.54,4 -4,4"/>
<text text-anchor="middle" x="116.27" y="-9.2" font-family="Times,serif" font-size="16.00" fill="white">Network Map</text>
<!-- R3 -->
<g id="node1" class="node">
<title>R3</title>
<polygon fill="#006699" stroke="#006699" points="91.54,-347 14.54,-347 14.54,-274 91.54,-274 91.54,-347"/>
<text text-anchor="middle" x="53.04" y="-306.8" font-family="Helvetica,sans-Serif" font-size="14.00" fill="white">R3</text>
</g>
<!-- R1 -->
<g id="node2" class="node">
<title>R1</title>
<polygon fill="#006699" stroke="#006699" points="91.54,-99 14.54,-99 14.54,-26 91.54,-26 91.54,-99"/>
<text text-anchor="middle" x="53.04" y="-58.8" font-family="Helvetica,sans-Serif" font-size="14.00" fill="white">R1</text>
</g>
<!-- R1&#45;&#45;R3 -->
<g id="edge1" class="edge">
<title>R1&#45;&#45;R3</title>
<path fill="none" stroke="green" stroke-dasharray="5,2" d="M50,-99.24C48.82,-114.82 47.62,-133.3 47.04,-150 45.91,-182.42 45.91,-190.58 47.04,-223 47.62,-239.7 48.82,-258.18 50,-273.76"/>
<text text-anchor="middle" x="97.04" y="-182.8" font-family="Courier,monospace" font-size="14.00" fill="white"> &#160;&#160;&#160;&#160;&#160;&#160;&#160;&#160;&#160;&#160;&#160;</text>
<text text-anchor="middle" x="25" y="-262.56" font-family="Courier,monospace" font-size="14.00" fill="white">Eth0/3</text>
<text text-anchor="middle" x="25" y="-103.04" font-family="Courier,monospace" font-size="14.00" fill="white">Eth0/3</text>
</g>
<!-- R2 -->
<g id="node3" class="node">
<title>R2</title>
<polygon fill="#006699" stroke="#006699" points="232.54,-223 155.54,-223 155.54,-150 232.54,-150 232.54,-223"/>
<text text-anchor="middle" x="194.04" y="-182.8" font-family="Helvetica,sans-Serif" font-size="14.00" fill="white">R2</text>
</g>
<!-- R1&#45;&#45;R2 -->
<g id="edge2" class="edge">
<title>R1&#45;&#45;R2</title>
<path fill="none" stroke="green" stroke-dasharray="5,2" d="M91.57,-96.84C111.3,-113.91 135.27,-134.65 155.07,-151.78"/>
<text text-anchor="middle" x="181.04" y="-120.8" font-family="Courier,monospace" font-size="14.00" fill="white"> &#160;&#160;&#160;&#160;&#160;&#160;&#160;&#160;&#160;&#160;&#160;</text>
<text text-anchor="middle" x="130.07" y="-140.58" font-family="Courier,monospace" font-size="14.00" fill="white">Eth0/1</text>
<text text-anchor="middle" x="116.57" y="-85.64" font-family="Courier,monospace" font-size="14.00" fill="white">Eth0/1</text>
</g>
<!-- R2&#45;&#45;R3 -->
<g id="edge3" class="edge">
<title>R2&#45;&#45;R3</title>
<path fill="none" stroke="green" stroke-dasharray="5,2" d="M155.51,-220.84C135.78,-237.91 111.8,-258.65 92.01,-275.78"/>
<text text-anchor="middle" x="181.04" y="-244.8" font-family="Courier,monospace" font-size="14.00" fill="white"> &#160;&#160;&#160;&#160;&#160;&#160;&#160;&#160;&#160;&#160;&#160;</text>
<text text-anchor="middle" x="117.01" y="-264.58" font-family="Courier,monospace" font-size="14.00" fill="white">Eth0/2</text>
<text text-anchor="middle" x="130.51" y="-209.64" font-family="Courier,monospace" font-size="14.00" fill="white">Eth0/2</text>
</g>
</g>
</svg>
